<mxfile host="app.diagrams.net" modified="2021-02-27T09:49:15.807Z" agent="5.0 (Windows NT 10.0; Win64; x64) AppleWebKit/537.36 (KHTML, like Gecko) Chrome/88.0.4324.190 Safari/537.36" etag="dbP0Xzx4aJaZ64NdeuSr" version="14.4.2" type="gitlab">
  <diagram id="y1kJHH9e92b12_6vBgDI" name="Page-1">
    <mxGraphModel dx="868" dy="1582" grid="1" gridSize="10" guides="1" tooltips="1" connect="1" arrows="1" fold="1" page="1" pageScale="1" pageWidth="850" pageHeight="1100" math="0" shadow="0">
      <root>
        <mxCell id="0" />
        <mxCell id="1" parent="0" />
        <mxCell id="uQu4CCQUiUPOoRhyfrip-21" style="edgeStyle=orthogonalEdgeStyle;rounded=0;orthogonalLoop=1;jettySize=auto;html=1;entryX=0;entryY=0.5;entryDx=0;entryDy=0;startArrow=none;startFill=0;endArrow=openThin;endFill=0;" parent="1" source="uQu4CCQUiUPOoRhyfrip-1" target="uQu4CCQUiUPOoRhyfrip-12" edge="1">
          <mxGeometry relative="1" as="geometry" />
        </mxCell>
        <mxCell id="uQu4CCQUiUPOoRhyfrip-22" style="edgeStyle=orthogonalEdgeStyle;rounded=0;orthogonalLoop=1;jettySize=auto;html=1;entryX=0;entryY=0.5;entryDx=0;entryDy=0;startArrow=none;startFill=0;endArrow=openThin;endFill=0;" parent="1" source="uQu4CCQUiUPOoRhyfrip-1" target="uQu4CCQUiUPOoRhyfrip-13" edge="1">
          <mxGeometry relative="1" as="geometry" />
        </mxCell>
        <mxCell id="uQu4CCQUiUPOoRhyfrip-39" style="edgeStyle=orthogonalEdgeStyle;rounded=0;orthogonalLoop=1;jettySize=auto;html=1;entryX=0;entryY=0.5;entryDx=0;entryDy=0;startArrow=none;startFill=0;endArrow=openThin;endFill=0;" parent="1" source="uQu4CCQUiUPOoRhyfrip-1" target="uQu4CCQUiUPOoRhyfrip-23" edge="1">
          <mxGeometry relative="1" as="geometry" />
        </mxCell>
        <mxCell id="uQu4CCQUiUPOoRhyfrip-43" style="edgeStyle=orthogonalEdgeStyle;rounded=0;orthogonalLoop=1;jettySize=auto;html=1;entryX=0;entryY=0.5;entryDx=0;entryDy=0;startArrow=none;startFill=0;endArrow=openThin;endFill=0;" parent="1" source="uQu4CCQUiUPOoRhyfrip-1" target="uQu4CCQUiUPOoRhyfrip-41" edge="1">
          <mxGeometry relative="1" as="geometry" />
        </mxCell>
        <mxCell id="uQu4CCQUiUPOoRhyfrip-47" style="edgeStyle=orthogonalEdgeStyle;rounded=0;orthogonalLoop=1;jettySize=auto;html=1;entryX=0;entryY=0.5;entryDx=0;entryDy=0;startArrow=none;startFill=0;endArrow=openThin;endFill=0;" parent="1" source="uQu4CCQUiUPOoRhyfrip-1" target="uQu4CCQUiUPOoRhyfrip-46" edge="1">
          <mxGeometry relative="1" as="geometry" />
        </mxCell>
        <mxCell id="uQu4CCQUiUPOoRhyfrip-1" value="Admin" style="shape=umlActor;verticalLabelPosition=bottom;verticalAlign=top;html=1;outlineConnect=0;" parent="1" vertex="1">
          <mxGeometry x="120" y="-40" width="30" height="60" as="geometry" />
        </mxCell>
        <mxCell id="uQu4CCQUiUPOoRhyfrip-35" style="edgeStyle=orthogonalEdgeStyle;rounded=0;orthogonalLoop=1;jettySize=auto;html=1;entryX=0;entryY=0.5;entryDx=0;entryDy=0;startArrow=none;startFill=0;endArrow=openThin;endFill=0;" parent="1" source="uQu4CCQUiUPOoRhyfrip-2" target="uQu4CCQUiUPOoRhyfrip-26" edge="1">
          <mxGeometry relative="1" as="geometry" />
        </mxCell>
        <mxCell id="uQu4CCQUiUPOoRhyfrip-36" style="edgeStyle=orthogonalEdgeStyle;rounded=0;orthogonalLoop=1;jettySize=auto;html=1;entryX=0;entryY=0.5;entryDx=0;entryDy=0;startArrow=none;startFill=0;endArrow=openThin;endFill=0;" parent="1" source="uQu4CCQUiUPOoRhyfrip-2" target="uQu4CCQUiUPOoRhyfrip-27" edge="1">
          <mxGeometry relative="1" as="geometry" />
        </mxCell>
        <mxCell id="uQu4CCQUiUPOoRhyfrip-37" style="edgeStyle=orthogonalEdgeStyle;rounded=0;orthogonalLoop=1;jettySize=auto;html=1;entryX=0;entryY=0.5;entryDx=0;entryDy=0;startArrow=none;startFill=0;endArrow=openThin;endFill=0;" parent="1" source="uQu4CCQUiUPOoRhyfrip-2" target="uQu4CCQUiUPOoRhyfrip-32" edge="1">
          <mxGeometry relative="1" as="geometry" />
        </mxCell>
        <mxCell id="-u34YW1HuJ5MO1a8NMMG-2" style="edgeStyle=orthogonalEdgeStyle;rounded=0;orthogonalLoop=1;jettySize=auto;html=1;entryX=0;entryY=0.5;entryDx=0;entryDy=0;" parent="1" source="uQu4CCQUiUPOoRhyfrip-2" target="-u34YW1HuJ5MO1a8NMMG-1" edge="1">
          <mxGeometry relative="1" as="geometry" />
        </mxCell>
        <mxCell id="uQu4CCQUiUPOoRhyfrip-2" value="User" style="shape=umlActor;verticalLabelPosition=bottom;verticalAlign=top;html=1;outlineConnect=0;" parent="1" vertex="1">
          <mxGeometry x="120" y="470" width="30" height="60" as="geometry" />
        </mxCell>
        <mxCell id="uQu4CCQUiUPOoRhyfrip-49" style="edgeStyle=orthogonalEdgeStyle;rounded=0;orthogonalLoop=1;jettySize=auto;html=1;entryX=1;entryY=0.5;entryDx=0;entryDy=0;startArrow=none;startFill=0;endArrow=openThin;endFill=0;" parent="1" source="uQu4CCQUiUPOoRhyfrip-7" target="uQu4CCQUiUPOoRhyfrip-46" edge="1">
          <mxGeometry relative="1" as="geometry" />
        </mxCell>
        <mxCell id="uQu4CCQUiUPOoRhyfrip-50" style="edgeStyle=orthogonalEdgeStyle;rounded=0;orthogonalLoop=1;jettySize=auto;html=1;entryX=1;entryY=0.5;entryDx=0;entryDy=0;startArrow=none;startFill=0;endArrow=openThin;endFill=0;" parent="1" source="uQu4CCQUiUPOoRhyfrip-7" target="uQu4CCQUiUPOoRhyfrip-41" edge="1">
          <mxGeometry relative="1" as="geometry" />
        </mxCell>
        <mxCell id="-u34YW1HuJ5MO1a8NMMG-16" style="edgeStyle=orthogonalEdgeStyle;rounded=0;orthogonalLoop=1;jettySize=auto;html=1;entryX=1;entryY=0.5;entryDx=0;entryDy=0;startArrow=none;startFill=0;endArrow=openThin;endFill=0;" parent="1" source="uQu4CCQUiUPOoRhyfrip-7" target="uQu4CCQUiUPOoRhyfrip-12" edge="1">
          <mxGeometry relative="1" as="geometry" />
        </mxCell>
        <mxCell id="Tms3cVdwULmHlJEQCAZI-4" style="edgeStyle=orthogonalEdgeStyle;rounded=0;orthogonalLoop=1;jettySize=auto;html=1;entryX=1;entryY=0.5;entryDx=0;entryDy=0;" edge="1" parent="1" source="uQu4CCQUiUPOoRhyfrip-7" target="Tms3cVdwULmHlJEQCAZI-2">
          <mxGeometry relative="1" as="geometry" />
        </mxCell>
        <mxCell id="Tms3cVdwULmHlJEQCAZI-5" style="edgeStyle=orthogonalEdgeStyle;rounded=0;orthogonalLoop=1;jettySize=auto;html=1;entryX=1;entryY=0.5;entryDx=0;entryDy=0;" edge="1" parent="1" source="uQu4CCQUiUPOoRhyfrip-7" target="Tms3cVdwULmHlJEQCAZI-3">
          <mxGeometry relative="1" as="geometry" />
        </mxCell>
        <mxCell id="uQu4CCQUiUPOoRhyfrip-7" value="Master" style="shape=umlActor;verticalLabelPosition=bottom;verticalAlign=top;html=1;outlineConnect=0;" parent="1" vertex="1">
          <mxGeometry x="720" y="-155" width="30" height="60" as="geometry" />
        </mxCell>
        <mxCell id="Tms3cVdwULmHlJEQCAZI-1" style="edgeStyle=orthogonalEdgeStyle;rounded=0;orthogonalLoop=1;jettySize=auto;html=1;entryX=1;entryY=0.5;entryDx=0;entryDy=0;" edge="1" parent="1" source="uQu4CCQUiUPOoRhyfrip-8" target="uQu4CCQUiUPOoRhyfrip-24">
          <mxGeometry relative="1" as="geometry" />
        </mxCell>
        <mxCell id="Tms3cVdwULmHlJEQCAZI-7" style="edgeStyle=orthogonalEdgeStyle;rounded=0;orthogonalLoop=1;jettySize=auto;html=1;entryX=1;entryY=0.5;entryDx=0;entryDy=0;" edge="1" parent="1" source="uQu4CCQUiUPOoRhyfrip-8" target="-u34YW1HuJ5MO1a8NMMG-1">
          <mxGeometry relative="1" as="geometry" />
        </mxCell>
        <mxCell id="uQu4CCQUiUPOoRhyfrip-8" value="Guest" style="shape=umlActor;verticalLabelPosition=bottom;verticalAlign=top;html=1;outlineConnect=0;" parent="1" vertex="1">
          <mxGeometry x="720" y="290" width="30" height="60" as="geometry" />
        </mxCell>
        <mxCell id="uQu4CCQUiUPOoRhyfrip-12" value="Add repair record" style="ellipse;whiteSpace=wrap;html=1;" parent="1" vertex="1">
          <mxGeometry x="355" y="-80" width="140" height="70" as="geometry" />
        </mxCell>
        <mxCell id="uQu4CCQUiUPOoRhyfrip-13" value="Manage repair record" style="ellipse;whiteSpace=wrap;html=1;" parent="1" vertex="1">
          <mxGeometry x="355" width="140" height="70" as="geometry" />
        </mxCell>
        <mxCell id="uQu4CCQUiUPOoRhyfrip-14" value="Edit repair record" style="ellipse;whiteSpace=wrap;html=1;" parent="1" vertex="1">
          <mxGeometry x="550" y="-40" width="140" height="70" as="geometry" />
        </mxCell>
        <mxCell id="uQu4CCQUiUPOoRhyfrip-15" value="Delete repair record" style="ellipse;whiteSpace=wrap;html=1;" parent="1" vertex="1">
          <mxGeometry x="550" y="40" width="140" height="70" as="geometry" />
        </mxCell>
        <mxCell id="uQu4CCQUiUPOoRhyfrip-23" value="Logout" style="ellipse;whiteSpace=wrap;html=1;" parent="1" vertex="1">
          <mxGeometry x="355" y="80" width="140" height="70" as="geometry" />
        </mxCell>
        <mxCell id="uQu4CCQUiUPOoRhyfrip-24" value="Login" style="ellipse;whiteSpace=wrap;html=1;" parent="1" vertex="1">
          <mxGeometry x="355" y="330" width="140" height="70" as="geometry" />
        </mxCell>
        <mxCell id="uQu4CCQUiUPOoRhyfrip-26" value="Logout" style="ellipse;whiteSpace=wrap;html=1;" parent="1" vertex="1">
          <mxGeometry x="355" y="410" width="140" height="70" as="geometry" />
        </mxCell>
        <mxCell id="uQu4CCQUiUPOoRhyfrip-27" value="Manage profile" style="ellipse;whiteSpace=wrap;html=1;" parent="1" vertex="1">
          <mxGeometry x="355" y="570" width="140" height="70" as="geometry" />
        </mxCell>
        <mxCell id="uQu4CCQUiUPOoRhyfrip-28" value="Edit profile" style="ellipse;whiteSpace=wrap;html=1;" parent="1" vertex="1">
          <mxGeometry x="550" y="530" width="140" height="70" as="geometry" />
        </mxCell>
        <mxCell id="uQu4CCQUiUPOoRhyfrip-29" value="Delete profile" style="ellipse;whiteSpace=wrap;html=1;" parent="1" vertex="1">
          <mxGeometry x="550" y="610" width="140" height="70" as="geometry" />
        </mxCell>
        <mxCell id="uQu4CCQUiUPOoRhyfrip-32" value="Create repair request" style="ellipse;whiteSpace=wrap;html=1;" parent="1" vertex="1">
          <mxGeometry x="355" y="490" width="140" height="70" as="geometry" />
        </mxCell>
        <mxCell id="uQu4CCQUiUPOoRhyfrip-41" value="Login" style="ellipse;whiteSpace=wrap;html=1;" parent="1" vertex="1">
          <mxGeometry x="355" y="-160" width="140" height="70" as="geometry" />
        </mxCell>
        <mxCell id="uQu4CCQUiUPOoRhyfrip-46" value="Set day off" style="ellipse;whiteSpace=wrap;html=1;" parent="1" vertex="1">
          <mxGeometry x="355" y="-250" width="140" height="70" as="geometry" />
        </mxCell>
        <mxCell id="-u34YW1HuJ5MO1a8NMMG-1" value="Registration" style="ellipse;whiteSpace=wrap;html=1;" parent="1" vertex="1">
          <mxGeometry x="355" y="250" width="140" height="70" as="geometry" />
        </mxCell>
        <mxCell id="-u34YW1HuJ5MO1a8NMMG-4" value="" style="endArrow=classic;html=1;exitX=0;exitY=0.5;exitDx=0;exitDy=0;entryX=0.979;entryY=0.3;entryDx=0;entryDy=0;entryPerimeter=0;dashed=1;" parent="1" source="uQu4CCQUiUPOoRhyfrip-28" target="uQu4CCQUiUPOoRhyfrip-27" edge="1">
          <mxGeometry relative="1" as="geometry">
            <mxPoint x="340" y="530" as="sourcePoint" />
            <mxPoint x="500" y="530" as="targetPoint" />
          </mxGeometry>
        </mxCell>
        <mxCell id="-u34YW1HuJ5MO1a8NMMG-5" value="Include" style="edgeLabel;resizable=0;html=1;align=center;verticalAlign=middle;" parent="-u34YW1HuJ5MO1a8NMMG-4" connectable="0" vertex="1">
          <mxGeometry relative="1" as="geometry" />
        </mxCell>
        <mxCell id="-u34YW1HuJ5MO1a8NMMG-7" value="" style="endArrow=classic;html=1;dashed=1;entryX=0.979;entryY=0.657;entryDx=0;entryDy=0;entryPerimeter=0;exitX=0;exitY=0.5;exitDx=0;exitDy=0;" parent="1" source="uQu4CCQUiUPOoRhyfrip-29" target="uQu4CCQUiUPOoRhyfrip-27" edge="1">
          <mxGeometry relative="1" as="geometry">
            <mxPoint x="370" y="530" as="sourcePoint" />
            <mxPoint x="470" y="530" as="targetPoint" />
          </mxGeometry>
        </mxCell>
        <mxCell id="-u34YW1HuJ5MO1a8NMMG-8" value="Include" style="edgeLabel;resizable=0;html=1;align=center;verticalAlign=middle;" parent="-u34YW1HuJ5MO1a8NMMG-7" connectable="0" vertex="1">
          <mxGeometry relative="1" as="geometry" />
        </mxCell>
        <mxCell id="-u34YW1HuJ5MO1a8NMMG-9" value="" style="endArrow=classic;html=1;exitX=0;exitY=0.5;exitDx=0;exitDy=0;entryX=0.979;entryY=0.3;entryDx=0;entryDy=0;entryPerimeter=0;dashed=1;" parent="1" edge="1">
          <mxGeometry relative="1" as="geometry">
            <mxPoint x="550" as="sourcePoint" />
            <mxPoint x="492.05999999999995" y="26" as="targetPoint" />
          </mxGeometry>
        </mxCell>
        <mxCell id="-u34YW1HuJ5MO1a8NMMG-10" value="Include" style="edgeLabel;resizable=0;html=1;align=center;verticalAlign=middle;" parent="-u34YW1HuJ5MO1a8NMMG-9" connectable="0" vertex="1">
          <mxGeometry relative="1" as="geometry" />
        </mxCell>
        <mxCell id="-u34YW1HuJ5MO1a8NMMG-11" value="" style="endArrow=classic;html=1;dashed=1;entryX=0.979;entryY=0.657;entryDx=0;entryDy=0;entryPerimeter=0;exitX=0;exitY=0.5;exitDx=0;exitDy=0;" parent="1" source="uQu4CCQUiUPOoRhyfrip-15" edge="1">
          <mxGeometry relative="1" as="geometry">
            <mxPoint x="552.94" y="75" as="sourcePoint" />
            <mxPoint x="494.99999999999994" y="45.98999999999978" as="targetPoint" />
          </mxGeometry>
        </mxCell>
        <mxCell id="-u34YW1HuJ5MO1a8NMMG-12" value="Include" style="edgeLabel;resizable=0;html=1;align=center;verticalAlign=middle;" parent="-u34YW1HuJ5MO1a8NMMG-11" connectable="0" vertex="1">
          <mxGeometry relative="1" as="geometry" />
        </mxCell>
        <mxCell id="Tms3cVdwULmHlJEQCAZI-2" value="Choose repair request&amp;nbsp;" style="ellipse;whiteSpace=wrap;html=1;" vertex="1" parent="1">
          <mxGeometry x="355" y="-330" width="140" height="70" as="geometry" />
        </mxCell>
        <mxCell id="Tms3cVdwULmHlJEQCAZI-3" value="View repair requests" style="ellipse;whiteSpace=wrap;html=1;" vertex="1" parent="1">
          <mxGeometry x="355" y="-410" width="140" height="70" as="geometry" />
        </mxCell>
      </root>
    </mxGraphModel>
  </diagram>
</mxfile>
